{"title":"The Hangover Part 3 2013 TS Xvid Mp3-SUFFiCE","uid":8528973,"size":1341636889,"categoryP":"video","categoryS":"movies","magnet":"?xt=urn:btih:e8d76d245dd2e06acfcffb7fcd5cfd5235dc69ef&amp;dn=The+Hangover+Part+3+2013+TS+Xvid+Mp3-SUFFiCE&amp;tr=udp%3A%2F%2Ftracker.openbittorrent.com%3A80&amp;tr=udp%3A%2F%2Fopen.demonii.com%3A1337&amp;tr=udp%3A%2F%2Ftracker.coppersurfer.tk%3A6969&amp;tr=udp%3A%2F%2Fexodus.desync.com%3A6969","seeders":32,"leechers":2,"uploader":"xxxlavalxxx","files":3,"time":1370096772,"description":" &lt;a href=&quot;http://www.imdb.com/title/tt1951261/&quot; rel=&quot;nofollow&quot; target=&quot;_NEW&quot;&gt;http://www.imdb.com/title/tt1951261/&lt;/a&gt;\n\n\nWhen one of their own is kidnapped by an angry gangster, the Wolf Pack must track down Mr. Chow, who has escaped from prison and is on the lam. \n\n\n\nDirector:\n Todd Phillips \n\nWriters:\n Todd Phillips, Craig Mazin\n\nStars:\n Bradley Cooper, Ed Helms, Zach Galifianakis \n\nGenres:\n  Comedy \n\nCountry:\n USA \n\nLanguage:\n English \n\n\n\n\nFormat                                   : AVI\nFormat/Info                              : Audio Video Interleave\nFile size                                : 1.22 GiB\nDuration                                 : 1h 34mn\nOverall bit rate                         : 1 833 Kbps\nWriting application                      : VirtualDubMod 1.5.10.2 (build 2540/release)\nWriting library                          : VirtualDubMod build 2540/release\n\nVideo\nID                                       : 0\nFormat                                   : MPEG-4 Visual\nFormat profile                           : Advanced Simple@L5\nFormat settings, BVOP                    : 2\nFormat settings, QPel                    : No\nFormat settings, GMC                     : No warppoints\nFormat settings, Matrix                  : Default (H.263)\nMuxing mode                              : Packed bitstream\nCodec ID                                 : XVID\nCodec ID/Hint                            : XviD\nDuration                                 : 1h 34mn\nBit rate                                 : 1 695 Kbps\nWidth                                    : 720 pixels\nHeight                                   : 274 pixels\nDisplay aspect ratio                     : 2.628\nFrame rate                               : 25.857 fps\nColor space                              : YUV\nChroma subsampling                       : 4:2:0\nBit depth                                : 8 bits\nScan type                                : Progressive\nCompression mode                         : Lossy\nBits/(Pixel*Frame)                       : 0.332\nStream size                              : 1.12 GiB (92%)\nWriting library                          : XviD 64\n\nAudio\nID                                       : 1\nFormat                                   : MPEG Audio\nFormat version                           : Version 1\nFormat profile                           : Layer 3\nMode                                     : Joint stereo\nMode extension                           : MS Stereo\nCodec ID                                 : 55\nCodec ID/Hint                            : MP3\nDuration                                 : 1h 34mn\nBit rate mode                            : Constant\nBit rate                                 : 128 Kbps\nChannel(s)                               : 2 channels\nSampling rate                            : 48.0 KHz\nCompression mode                         : Lossy\nStream size                              : 86.9 MiB (7%)\nAlignment                                : Aligned on interleaves\nInterleave, duration                     : 39 ms (1.00 video frame)\nInterleave, preload duration             : 504 ms\nWriting library                          : LAME3.99r\nEncoding settings                        : -m j -V 4 -q 2 -lowpass 17 -b 128\n\n\n\n\n    &lt;a href=&quot;\thttp://addpix.net/viewer.php?file=17046179210021087688.jpg&quot; rel=&quot;nofollow&quot; target=&quot;_NEW&quot;&gt;\thttp://addpix.net/viewer.php?file=17046179210021087688.jpg&lt;/a&gt;\n    &lt;a href=&quot;\thttp://addpix.net/viewer.php?file=99659268272953071690.jpg&quot; rel=&quot;nofollow&quot; target=&quot;_NEW&quot;&gt;\thttp://addpix.net/viewer.php?file=99659268272953071690.jpg&lt;/a&gt;\n    &lt;a href=&quot;\thttp://addpix.net/viewer.php?file=46673079194860634847.jpg&quot; rel=&quot;nofollow&quot; target=&quot;_NEW&quot;&gt;\thttp://addpix.net/viewer.php?file=46673079194860634847.jpg&lt;/a&gt;\n    &lt;a href=&quot;\thttp://addpix.net/viewer.php?file=91558331526945597717.jpg&quot; rel=&quot;nofollow&quot; target=&quot;_NEW&quot;&gt;\thttp://addpix.net/viewer.php?file=91558331526945597717.jpg&lt;/a&gt;\n    &lt;a href=&quot;\thttp://addpix.net/viewer.php?file=62473248215963115444.jpg&quot; rel=&quot;nofollow&quot; target=&quot;_NEW&quot;&gt;\thttp://addpix.net/viewer.php?file=62473248215963115444.jpg&lt;/a&gt;","torrent":{"xt":"urn:btih:e8d76d245dd2e06acfcffb7fcd5cfd5235dc69ef","amp;dn":"The+Hangover+Part+3+2013+TS+Xvid+Mp3-SUFFiCE","amp;tr":["udp%3A%2F%2Ftracker.openbittorrent.com%3A80","udp%3A%2F%2Fopen.demonii.com%3A1337","udp%3A%2F%2Ftracker.coppersurfer.tk%3A6969","udp%3A%2F%2Fexodus.desync.com%3A6969"],"infoHash":"e8d76d245dd2e06acfcffb7fcd5cfd5235dc69ef","infoHashBuffer":{"type":"Buffer","data":[232,215,109,36,93,210,224,106,207,207,251,127,205,92,253,82,53,220,105,239]},"announce":[],"urlList":[]}}